999
*********************************************************
999
DXF file created by AutoPOL GT (www.autopol.com).
999
Wednesday, May 11, 14:59:53 2022
999
*********************************************************
0
SECTION
  2
HEADER
  9
$ACADVER
  1
AC1009
  9
$HANDSEED
  5
FFFF
  9
$DIMALTF
 40
0.0393701
  9
$EXTMIN
 10
0.0000000000000000
 20
0.0000000000000000
 30
0.0000000000000000
  9
$EXTMAX
 10
284.5891757302689484
 20
90.0000000000007532
 30
0.0000000000000000
  9
$DIMTXT
 40
3.5000000000000000
0
ENDSEC
0
SECTION
  2
TABLES
  0
TABLE
  2
LTYPE
 70
     3
  0
LTYPE
  2
CONTINUOUS
 70
    64
  3
Solid line
 72
    65
 73
     0
 40
0.0
0
LTYPE
  2
HIDDEN
 70
    64
  3
__ __ __ __ __ __ __ __ __ __ __ __ __ __ __ __
 72
    65
 73
     2
 40
4.7625
 49
3.175
 49
-1.5875
  0
LTYPE
  2
CENTER
 70
    64
  3
____ _ ____ _ ____ _ ____ _ ____ _ ____ _ ____
 72
    65
 73
     4
 40
12.7
 49
7.9375
 49
-1.5875
 49
1.5875
 49
-1.5875
  0
ENDTAB
  0
TABLE
  2
LAYER
 70
     9
  0
LAYER
  2
AP_CONTOUR
 70
     0
 62
     7
  6
CONTINUOUS
  0
LAYER
  2
AP_BEND_LINES_UP
 70
     0
 62
     1
  6
CENTER
  0
LAYER
  2
AP_BEND_LINES_DOWN
 70
     0
 62
     3
  6
CENTER
  0
LAYER
  2
AP_BEND_ANGLES
 70
     0
 62
     7
  6
CONTINUOUS
  0
LAYER
  2
AP_TEXT
 70
     0
 62
     255
  6
CONTINUOUS
  0
LAYER
  2
AP_FORMINGS_DOWN
 70
     0
 62
     5
  6
HIDDEN
  0
LAYER
  2
AP_FORMINGS_UP
 70
     0
 62
     4
  6
HIDDEN
  0
LAYER
  2
AP_BEVELED_CONTOUR
 70
     0
 62
     6
  6
CONTINUOUS
  0
LAYER
  2
AP_BEVELED_CHAMFER
 70
     0
 62
     6
  6
HIDDEN
  0
ENDTAB
0
ENDSEC
  0
SECTION
  2
ENTITIES
  0
LINE
  5
1
  8
AP_CONTOUR
6
CONTINUOUS
 62
     7
 10
6.0000000000000000
 20
0.0000000000000000
 30
0.0000000000000000
 11
231.1576464418907904
 21
0.0000000000000364
 31
0.0000000000000000
  0
ARC
  5
2
  8
AP_CONTOUR
6
CONTINUOUS
 62
     7
 10
231.1576464418908188
 20
6.0000000000000142
 30
0.0000000000000000
 40
5.9999999999999778
 50
269.9999999999994316
 51
0.0000000000000000
  0
LINE
  5
3
  8
AP_CONTOUR
6
CONTINUOUS
 62
     7
 10
237.1576464418907904
 20
6.0000000000000346
 30
0.0000000000000000
 11
237.1576464418908188
 21
69.0000000000000426
 31
0.0000000000000000
  0
ARC
  5
4
  8
AP_CONTOUR
6
CONTINUOUS
 62
     7
 10
231.1576464418907904
 20
69.0000000000000426
 30
0.0000000000000000
 40
6.0000000000000000
 50
0.0000000000000000
 51
90.0000000000000000
  0
LINE
  5
5
  8
AP_CONTOUR
6
CONTINUOUS
 62
     7
 10
231.1576464418908188
 20
75.0000000000000426
 30
0.0000000000000000
 11
6.0000000000000000
 21
75.0000000000000142
 31
0.0000000000000000
  0
ARC
  5
6
  8
AP_CONTOUR
6
CONTINUOUS
 62
     7
 10
5.9999999999999920
 20
69.0000000000000284
 30
0.0000000000000000
 40
5.9999999999999858
 50
89.9999999999999289
 51
180.0000000000000000
  0
LINE
  5
7
  8
AP_CONTOUR
6
CONTINUOUS
 62
     7
 10
0.0000000000000000
 20
69.0000000000000142
 30
0.0000000000000000
 11
0.0000000000000000
 21
6.0000000000000142
 31
0.0000000000000000
  0
ARC
  5
8
  8
AP_CONTOUR
6
CONTINUOUS
 62
     7
 10
6.0000000000000018
 20
6.0000000000000036
 30
0.0000000000000000
 40
6.0000000000000018
 50
179.9999999999998863
 51
270.0000000000000000
  0
ARC
  5
9
  8
AP_CONTOUR
6
CONTINUOUS
 62
     7
 10
43.2894116104729605
 20
21.5000000000000142
 30
0.0000000000000000
 40
4.0000000000000036
 50
269.9999999999997158
 51
0.0000000000000000
  0
LINE
  5
A
  8
AP_CONTOUR
6
CONTINUOUS
 62
     7
 10
43.2894116104729392
 20
17.5000000000000107
 30
0.0000000000000000
 11
36.2894116104725413
 21
17.5000000000000000
 31
0.0000000000000000
  0
ARC
  5
B
  8
AP_CONTOUR
6
CONTINUOUS
 62
     7
 10
36.2894116104729676
 20
21.5000000000000000
 30
0.0000000000000000
 40
4.0000000000000000
 50
179.9999999999994884
 51
269.9999999999939178
  0
LINE
  5
C
  8
AP_CONTOUR
6
CONTINUOUS
 62
     7
 10
32.2894116104729676
 20
21.5000000000000355
 30
0.0000000000000000
 11
32.2894116104729392
 21
53.5000000000000071
 31
0.0000000000000000
  0
ARC
  5
D
  8
AP_CONTOUR
6
CONTINUOUS
 62
     7
 10
36.2894116104729179
 20
53.5000000000000284
 30
0.0000000000000000
 40
3.9999999999999858
 50
89.9999999999988773
 51
180.0000000000003126
  0
LINE
  5
E
  8
AP_CONTOUR
6
CONTINUOUS
 62
     7
 10
36.2894116104729960
 20
57.5000000000000142
 30
0.0000000000000000
 11
43.2894116104729392
 21
57.5000000000000071
 31
0.0000000000000000
  0
ARC
  5
F
  8
AP_CONTOUR
6
CONTINUOUS
 62
     7
 10
43.2894116104729605
 20
53.5000000000000000
 30
0.0000000000000000
 40
4.0000000000000071
 50
0.0000000000000000
 51
90.0000000000002984
  0
LINE
  5
10
  8
AP_CONTOUR
6
CONTINUOUS
 62
     7
 10
47.2894116104729676
 20
53.4999999999999929
 30
0.0000000000000000
 11
47.2894116104729676
 21
21.5000000000000391
 31
0.0000000000000000
  0
LINE
  5
11
  8
AP_CONTOUR
6
CONTINUOUS
 62
     7
 10
200.8682348314179080
 20
17.5000000000000249
 30
0.0000000000000000
 11
193.8682348314179080
 21
17.5000000000000249
 31
0.0000000000000000
  0
ARC
  5
12
  8
AP_CONTOUR
6
CONTINUOUS
 62
     7
 10
193.8682348314178796
 20
21.5000000000000355
 30
0.0000000000000000
 40
4.0000000000000000
 50
179.9999999999997442
 51
270.0000000000003979
  0
LINE
  5
13
  8
AP_CONTOUR
6
CONTINUOUS
 62
     7
 10
189.8682348314178796
 20
21.5000000000000533
 30
0.0000000000000000
 11
189.8682348314178796
 21
53.5000000000000000
 31
0.0000000000000000
  0
ARC
  5
14
  8
AP_CONTOUR
6
CONTINUOUS
 62
     7
 10
193.8682348314179080
 20
53.5000000000000071
 30
0.0000000000000000
 40
4.0000000000000213
 50
89.9999999999991900
 51
180.0000000000001137
  0
LINE
  5
15
  8
AP_CONTOUR
6
CONTINUOUS
 62
     7
 10
193.8682348314179649
 20
57.5000000000000284
 30
0.0000000000000000
 11
200.8682348314179933
 21
57.5000000000000284
 31
0.0000000000000000
  0
ARC
  5
16
  8
AP_CONTOUR
6
CONTINUOUS
 62
     7
 10
200.8682348314179080
 20
53.5000000000000426
 30
0.0000000000000000
 40
3.9999999999999716
 50
0.0000000000000000
 51
89.9999999999983658
  0
LINE
  5
17
  8
AP_CONTOUR
6
CONTINUOUS
 62
     7
 10
204.8682348314178796
 20
53.5000000000000284
 30
0.0000000000000000
 11
204.8682348314178796
 21
21.5000000000000533
 31
0.0000000000000000
  0
ARC
  5
18
  8
AP_CONTOUR
6
CONTINUOUS
 62
     7
 10
200.8682348314179080
 20
21.5000000000000071
 30
0.0000000000000000
 40
3.9999999999999822
 50
270.0000000000000000
 51
0.0000000000000000
  0
LINE
  5
19
  8
AP_BEND_LINES_UP
6
CENTER
 62
     1
 10
181.9735290261817511
 20
0.0000000000000290
 30
0.0000000000000000
 11
181.9735290261817511
 21
75.0000000000000284
 31
0.0000000000000000
  0
TEXT
  5
1A
  8
AP_BEND_ANGLES
6
CONTINUOUS
 62
     7
 10
181.4735290261817511
 20
37.5000000000000284
 30
0.0000000000000000
 40
3.5000000000000000
  1
90°
 50
90
 72
     1
 11
181.4735290261817511
 21
37.5000000000000284
 31
0.0000000000000000
  0
LINE
  5
1B
  8
AP_BEND_LINES_UP
6
CENTER
 62
     1
 10
214.7629406366544345
 20
0.0000000000000275
 30
0.0000000000000000
 11
214.7629406366544345
 21
75.0000000000000426
 31
0.0000000000000000
  0
TEXT
  5
1C
  8
AP_BEND_ANGLES
6
CONTINUOUS
 62
     7
 10
214.2629406366544345
 20
37.5000000000000355
 30
0.0000000000000000
 40
3.5000000000000000
  1
90°
 50
90
 72
     1
 11
214.2629406366544345
 21
37.5000000000000355
 31
0.0000000000000000
  0
LINE
  5
1D
  8
AP_BEND_LINES_UP
6
CENTER
 62
     1
 10
55.1841174157090677
 20
75.0000000000000142
 30
0.0000000000000000
 11
55.1841174157090961
 21
0.0000000000000121
 31
0.0000000000000000
  0
TEXT
  5
1E
  8
AP_BEND_ANGLES
6
CONTINUOUS
 62
     7
 10
54.6841174157090819
 20
37.5000000000000142
 30
0.0000000000000000
 40
3.5000000000000000
  1
90°
 50
90
 72
     1
 11
54.6841174157090819
 21
37.5000000000000142
 31
0.0000000000000000
  0
LINE
  5
1F
  8
AP_BEND_LINES_UP
6
CENTER
 62
     1
 10
22.3947058052363559
 20
75.0000000000000000
 30
0.0000000000000000
 11
22.3947058052364127
 21
-0.0000000000000088
 31
0.0000000000000000
  0
TEXT
  5
20
  8
AP_BEND_ANGLES
6
CONTINUOUS
 62
     7
 10
21.8947058052363843
 20
37.4999999999999929
 30
0.0000000000000000
 40
3.5000000000000000
  1
90°
 50
90
 72
     1
 11
21.8947058052363843
 21
37.4999999999999929
 31
0.0000000000000000
  0
CIRCLE
  5
21
  8
AP_CONTOUR
6
CONTINUOUS
 62
     7
 10
7.0000000000000000
 20
10.0000000000000284
 30
0.0000000000000000
 40
1.7500000000000000
  0
CIRCLE
  5
22
  8
AP_CONTOUR
6
CONTINUOUS
 62
     7
 10
6.9999999999999716
 20
65.0000000000000142
 30
0.0000000000000000
 40
1.7500000000000000
  0
CIRCLE
  5
23
  8
AP_CONTOUR
6
CONTINUOUS
 62
     7
 10
230.1576464418908188
 20
10.0000000000000284
 30
0.0000000000000000
 40
1.7500000000000000
  0
CIRCLE
  5
24
  8
AP_CONTOUR
6
CONTINUOUS
 62
     7
 10
230.1576464418908188
 20
65.0000000000000284
 30
0.0000000000000000
 40
1.7500000000000000
  0
CIRCLE
  5
25
  8
AP_CONTOUR
6
CONTINUOUS
 62
     7
 10
81.0788232209454236
 20
9.2500000000000142
 30
0.0000000000000000
 40
1.2500000000000000
  0
CIRCLE
  5
26
  8
AP_CONTOUR
6
CONTINUOUS
 62
     7
 10
149.5788232209454236
 20
62.0000000000000142
 30
0.0000000000000000
 40
1.2500000000000000
  0
CIRCLE
  5
27
  8
AP_CONTOUR
6
CONTINUOUS
 62
     7
 10
91.5788232209454094
 20
62.0000000000000071
 30
0.0000000000000000
 40
1.2500000000000000
  0
CIRCLE
  5
28
  8
AP_CONTOUR
6
CONTINUOUS
 62
     7
 10
91.5788232209454236
 20
13.0000000000000107
 30
0.0000000000000000
 40
1.2500000000000000
  0
CIRCLE
  5
29
  8
AP_CONTOUR
6
CONTINUOUS
 62
     7
 10
149.5788232209454236
 20
13.0000000000000178
 30
0.0000000000000000
 40
1.2500000000000000
  0
CIRCLE
  5
2A
  8
AP_CONTOUR
6
CONTINUOUS
 62
     7
 10
81.0788232209454094
 20
65.7500000000000142
 30
0.0000000000000000
 40
1.2500000000000000
  0
CIRCLE
  5
2B
  8
AP_CONTOUR
6
CONTINUOUS
 62
     7
 10
60.0788232209454094
 20
65.7500000000000142
 30
0.0000000000000000
 40
1.2500000000000000
  0
CIRCLE
  5
2C
  8
AP_CONTOUR
6
CONTINUOUS
 62
     7
 10
60.0788232209454236
 20
9.2500000000000178
 30
0.0000000000000000
 40
1.2500000000000000
  0
ENDSEC
  0
EOF
